<?xml version="1.0" encoding="UTF-8"?>
<svg id="Layer_1" xmlns="http://www.w3.org/2000/svg" version="1.1" viewBox="0 0 290 177">
  <!-- Generator: Adobe Illustrator 30.3.0, SVG Export Plug-In . SVG Version: 2.1.3 Build 182)  -->
  <defs>
    <style>
      .st0 {
        fill: #c8ac2e;
      }

      .st1 {
        fill: #232122;
      }
    </style>
  </defs>
  <path class="st1" d="M83.6,21.6c-11.2-15.4-37.5-13.1-54.1-12.7-6.8.2-14.9.4-21.6,1.1v3.2c3.1,0,10.7,0,12.7,2.2,3,3.6,2.5,14,2.5,18.5v20.3c4.8,0,9.5,0,14.3,0V12.6c8.2-.4,21.8-.8,28.1,5,8.2,7.5,8.4,26.1,1.1,34.1-.9,1-1.9,1.8-3,2.4,1.4.4,12.1.5,13.3-.1,5.6-4,9.6-8.8,10.7-15.8,1-5.8-.4-11.7-3.8-16.5Z"/>
  <path class="st1" d="M22.8,87.6h20.6c2.6,0,14.8-.2,16.6.3,8.7,5.7,18,20.3,24.7,28.4,9.1,10.9,13,16.4,27.7,18v3.2c0,0-27,0-27,0-14.7-12.8-23.3-31.5-36.9-45.4-3.1-3.2-7.2-2.6-11.3-2.5-.1,7,0,14.1,0,21.3,0,5.1-.7,17,2.7,21,2.3,2.6,10.9,2.4,14.6,2.4v3.2s-47.5,0-47.5,0v-3.2c11.2-.4,15.8,0,15.7-13.4,0-2.9.1-6.3.1-9.3,0-8,0-16,0-24Z"/>
  <path class="st1" d="M134.3,87.6c4.9,0,9.7,0,14.6,0-.3,15.5.2,31.4-.1,47,.2,11.6-1.4,20.7-9.8,29.2-10.3,10.4-36.5,13.2-46.9,2.2-1.9-2-2.9-4.6-2.8-7.4,0-2.3,1-4.5,2.7-6.1,1.3-1.2,3.1-1.9,4.9-1.8,1.7,0,4.8,1.3,5.7,2.6,5.3,7.8-7.6,15.2,9.4,16.2,9,.5,18.7-6.6,20.6-15.5,2.1-9.9,1.7-22,1.7-32.2v-34.3Z"/>
  <path class="st1" d="M171.8,10c14.6-.3,30.1,0,44.7,0v3.2c-14.4,0-14.8,1.5-15.1,15.6v25.4s33,0,33,0c6.1,0,12.8.1,18.8,0,4.8,0,9.6,0,14.4,0,0,.7.2,2-.2,2.6,0,0-.1,0-.2,0-1.8.2-5.3.1-7.2.1h-13.2s-43.1,0-43.1,0H59.6c-3.9,0-35.9.2-36.5-.3-.3-.9-.2-1.6,0-2.5,4.8,0,9.5,0,14.3,0,3.8,0,23.8.5,26.2-.2,1.4.4,12.1.5,13.3-.1,1.4.8,51.7.4,57.8.3h14.5c12.2.3,25.8,0,38,0,.1-8.1,0-16.5,0-24.6-.3-14.8-.1-16.2-15.2-16.4v-3.2Z"/>
  <path class="st0" d="M201.3,54.3c0-6.8-.4-18.9.2-25.4v25.4s33,0,33,0c6.1,0,12.8.1,18.8,0,4.8,0,9.6,0,14.4,0,0,.7.2,2-.2,2.6,0,0-.1,0-.2,0-1.8.2-5.3.1-7.2.1h-13.2s-43.1,0-43.1,0H59.6c-3.9,0-35.9.2-36.5-.3-.3-.9-.2-1.6,0-2.5,4.8,0,9.5,0,14.3,0,3.8,0,23.8.5,26.2-.2,1.4.4,12.1.5,13.3-.1,1.4.8,51.7.4,57.8.3h14.5c12.2.3,25.8,0,38,0,.1-8.1,0-16.5,0-24.6.3,2.2.2,6.8.2,9.2v15.4c4.6,0,9.4,0,14,0Z"/>
  <path class="st1" d="M187,87.6c1.9,0,13.3-.2,14.2.1v22.8c0,5.4-.8,16.8,2.8,21.3,2,2.5,9.2,2.4,12.5,2.5v3.2s-44.7,0-44.7,0v-3.2c9.4-.7,14.7.5,15-11.4.1-3.8.2-7.8.2-11.6v-23.6Z"/>
  <path class="st1" d="M253.2,88l.2-.3c2.8-.3,11-.1,14.2-.1v22.8c0,5.4-.1,10.7.6,16.1,1,7.8,6.5,7.4,12.7,7.8v3.2s-43.6,0-43.6,0v-3.3c6.2-.2,15,.6,15.5-7.7.7-12.5.8-26,.5-38.5Z"/>
  <path class="st1" d="M118.8,10h46.1s0,3.2,0,3.2c-3.3,0-10.9-.3-13.3,2.1-2.5,2.5-2.4,10.4-2.5,13.7-.2,8.4-.1,16.8,0,25.1h-14.5s0-19.3,0-19.3c0-5.1.7-15.8-2.9-19.8-1.8-2.1-9.9-2-12.8-2h0v-3.2Z"/>
  <path class="st1" d="M237.4,10c15,0,30.2-.2,45.2,0v3.2c-2.8,0-10.7,0-12.3,2.2-3.3,4.5-2.5,15.8-2.6,21.2,0,6.1,0,11.9,0,17.7-4.8,0-9.6,0-14.4,0v-19.2c0-4.8.6-15.8-2.5-19.6-1.9-2.2-10.1-2.2-13.1-2.1h-.3s0-3.2,0-3.2Z"/>
  <path class="st0" d="M22.8,87.6c0-.8-.2-1.8.2-2.5.6-.4,46.9-.2,52.4-.2h129.3s42.2,0,42.2,0h12.8c2.2,0,5.4-.1,7.4.1.7.5.5,1.8.4,2.6-3.1,0-11.4-.2-14.2.1l-.2.3c-.7-.5-47-.1-51.9-.3-.9-.4-12.3-.1-14.2-.1h-38.1c-4.9,0-9.7,0-14.6,0-7.2,0-73.4-.3-74.3.2-1.7-.5-14-.2-16.6-.2h-20.6Z"/>
  <g>
    <path class="st0" d="M27,64.9h-4.9v-1.8h12v1.8h-4.9v14.4h-2.1v-14.4Z"/>
    <path class="st0" d="M40,74.2l-1.7,5.1h-2.2l5.5-16.2h2.5l5.5,16.2h-2.2l-1.7-5.1h-5.7ZM45.3,72.5l-1.6-4.7c-.4-1.1-.6-2-.8-3h0c-.2,1-.5,1.9-.8,2.9l-1.6,4.7h4.9Z"/>
    <path class="st0" d="M63.9,79.3l-2.1-3.6c-.8-1.4-1.4-2.3-1.9-3.2h0c-.5.9-.9,1.8-1.8,3.2l-1.9,3.6h-2.4l4.9-8.2-4.8-8h2.4l2.1,3.8c.6,1.1,1.1,1.9,1.5,2.7h0c.5-1,.9-1.7,1.5-2.7l2.2-3.8h2.4l-4.9,7.9,5,8.3h-2.4Z"/>
    <path class="st0" d="M83.2,74.2l-1.7,5.1h-2.2l5.5-16.2h2.5l5.5,16.2h-2.2l-1.7-5.1h-5.7ZM88.5,72.5l-1.6-4.7c-.4-1.1-.6-2-.8-3h0c-.2,1-.5,1.9-.8,2.9l-1.6,4.7h4.9Z"/>
    <path class="st0" d="M98.6,63.3c1.3-.2,2.8-.3,4.4-.3,3,0,5.1.7,6.6,2,1.4,1.3,2.3,3.2,2.3,5.8s-.8,4.8-2.3,6.3c-1.5,1.5-4,2.3-7.2,2.3s-2.7,0-3.8-.2v-15.9ZM100.7,77.6c.5,0,1.3.1,2.1.1,4.5,0,6.9-2.5,6.9-6.9,0-3.8-2.1-6.2-6.6-6.2s-1.9,0-2.4.2v12.8Z"/>
    <path class="st0" d="M121.5,79.3l-5.3-16.2h2.3l2.5,8c.7,2.2,1.3,4.2,1.7,6h0c.5-1.9,1.1-3.9,1.8-6l2.7-8h2.2l-5.8,16.2h-2.3Z"/>
    <path class="st0" d="M136.8,63.1v16.2h-2.1v-16.2h2.1Z"/>
    <path class="st0" d="M143.5,76.7c.9.6,2.3,1.1,3.7,1.1,2.1,0,3.4-1.1,3.4-2.8s-.9-2.4-3-3.2c-2.6-.9-4.3-2.3-4.3-4.6s2.1-4.4,5.2-4.4,2.9.4,3.6.8l-.6,1.7c-.5-.3-1.6-.8-3.1-.8-2.2,0-3,1.3-3,2.4s1,2.3,3.2,3.1c2.7,1.1,4.1,2.4,4.1,4.8s-1.8,4.7-5.7,4.7-3.3-.5-4.1-1l.5-1.8Z"/>
    <path class="st0" d="M172.9,71c0,5.6-3.4,8.5-7.5,8.5s-7.3-3.3-7.3-8.2,3.2-8.5,7.5-8.5,7.3,3.4,7.3,8.2ZM160.3,71.3c0,3.5,1.9,6.6,5.2,6.6s5.2-3,5.2-6.7-1.7-6.6-5.2-6.6-5.2,3.2-5.2,6.7Z"/>
    <path class="st0" d="M178.9,63.3c1.1-.2,2.6-.3,4-.3,2.2,0,3.7.4,4.7,1.3.8.7,1.3,1.8,1.3,3.1,0,2.1-1.3,3.6-3,4.1h0c1.2.5,2,1.7,2.4,3.3.5,2.3.9,3.8,1.2,4.4h-2.2c-.3-.5-.6-1.8-1.1-3.9-.5-2.2-1.3-3.1-3.2-3.1h-2v7h-2.1v-16ZM181,70.7h2.1c2.2,0,3.6-1.2,3.6-3.1s-1.5-3-3.7-3c-1,0-1.7,0-2.1.2v5.9Z"/>
    <path class="st0" d="M194.9,76.7c.9.6,2.3,1.1,3.7,1.1,2.1,0,3.4-1.1,3.4-2.8s-.9-2.4-3-3.2c-2.6-.9-4.3-2.3-4.3-4.6s2.1-4.4,5.2-4.4,2.9.4,3.6.8l-.6,1.7c-.5-.3-1.6-.8-3.1-.8-2.2,0-3,1.3-3,2.4s1,2.3,3.2,3.1c2.7,1.1,4.1,2.4,4.1,4.8s-1.8,4.7-5.7,4.7-3.3-.5-4.1-1l.5-1.8Z"/>
    <path class="st0" d="M208.9,82.2c.5-1.4,1.2-4,1.4-5.7l2.4-.2c-.6,2-1.6,4.7-2.3,5.8h-1.5Z"/>
    <path class="st0" d="M227.2,63.1h2.1v14.4h6.9v1.8h-9v-16.2Z"/>
    <path class="st0" d="M241.9,63.1h2.1v14.4h6.9v1.8h-9v-16.2Z"/>
    <path class="st0" d="M266.9,78.7c-.8.4-2.3.8-4.3.8-4.6,0-8-2.9-8-8.2s3.4-8.5,8.4-8.5,3.3.4,3.8.7l-.5,1.7c-.8-.4-1.9-.7-3.3-.7-3.8,0-6.3,2.4-6.3,6.7s2.3,6.5,6.2,6.5,2.6-.3,3.4-.7l.4,1.7Z"/>
  </g>
</svg>